HIERARCHY
ROOT SimulationBone
{
	OFFSET 0.000000 0.000000 0.000000
	CHANNELS 6 Xposition Yposition Zposition Zrotation Yrotation Xrotation 
	JOINT Hips
	{
		OFFSET 0.000000 0.000000 0.000000
		CHANNELS 6 Xposition Yposition Zposition Zrotation Yrotation Xrotation 
		JOINT RightUpLeg
		{
			OFFSET 0.103456 1.857840 10.548501
			CHANNELS 3 Zrotation Yrotation Xrotation
			JOINT RightLeg
			{
				OFFSET 43.499992 -0.000038 -0.000006
				CHANNELS 3 Zrotation Yrotation Xrotation
				JOINT RightFoot
				{
					OFFSET 42.372196 0.000031 0.000002
					CHANNELS 3 Zrotation Yrotation Xrotation
					JOINT RightToe
					{
						OFFSET 17.299974 -0.000010 -0.000017
						CHANNELS 3 Zrotation Yrotation Xrotation
						End Site
						{
							OFFSET 0.000000 0.000000 0.000000
						}
					}
				}
			}
		}
		JOINT LeftUpLeg
		{
			OFFSET 0.103462 1.857831 -10.548510
			CHANNELS 3 Zrotation Yrotation Xrotation
			JOINT LeftLeg
			{
				OFFSET 43.500046 -0.000015 0.000008
				CHANNELS 3 Zrotation Yrotation Xrotation
				JOINT LeftFoot
				{
					OFFSET 42.372265 -0.000015 0.000004
					CHANNELS 3 Zrotation Yrotation Xrotation
					JOINT LeftToe
					{
						OFFSET 17.299995 -0.000004 0.000013
						CHANNELS 3 Zrotation Yrotation Xrotation
						End Site
						{
							OFFSET 0.000000 0.000000 0.000000
						}
					}
				}
			}
		}
		JOINT Spine
		{
			OFFSET 6.901966 -2.603716 -0.000002
			CHANNELS 3 Zrotation Yrotation Xrotation
			JOINT Spine1
			{
				OFFSET 12.588102 -0.000001 0.000005
				CHANNELS 3 Zrotation Yrotation Xrotation
				JOINT Spine2
				{
					OFFSET 12.343201 -0.000023 -0.000011
					CHANNELS 3 Zrotation Yrotation Xrotation
					JOINT Neck
					{
						OFFSET 25.832901 0.000011 0.000007
						CHANNELS 3 Zrotation Yrotation Xrotation
						JOINT Head
						{
							OFFSET 11.766600 -0.000002 0.000002
							CHANNELS 3 Zrotation Yrotation Xrotation
							End Site
							{
								OFFSET 0.000000 0.000000 0.000000
							}
						}
					}
					JOINT RightShoulder
					{
						OFFSET 19.745907 -1.480350 6.000119
						CHANNELS 3 Zrotation Yrotation Xrotation
						JOINT RightArm
						{
							OFFSET 11.284122 -0.000013 -0.000023
							CHANNELS 3 Zrotation Yrotation Xrotation
							JOINT RightForeArm
							{
								OFFSET 33.000057 0.000005 0.000025
								CHANNELS 3 Zrotation Yrotation Xrotation
								JOINT RightHand
								{
									OFFSET 25.199997 0.000020 0.000019
									CHANNELS 3 Zrotation Yrotation Xrotation
									End Site
									{
										OFFSET 0.000000 0.000000 0.000000
									}
								}
							}
						}
					}
					JOINT LeftShoulder
					{
						OFFSET 19.746096 -1.480352 -6.000062
						CHANNELS 3 Zrotation Yrotation Xrotation
						JOINT LeftArm
						{
							OFFSET 11.284150 0.000007 -0.000012
							CHANNELS 3 Zrotation Yrotation Xrotation
							JOINT LeftForeArm
							{
								OFFSET 33.000092 0.000019 0.000012
								CHANNELS 3 Zrotation Yrotation Xrotation
								JOINT LeftHand
								{
									OFFSET 25.199797 0.000118 0.000427
									CHANNELS 3 Zrotation Yrotation Xrotation
									End Site
									{
										OFFSET 0.000000 0.000000 0.000000
									}
								}
							}
						}
					}
				}
			}
		}
	}
}
MOTION
Frames: 8
Frame Time: 0.016667
192.739325 0.000000 6.160997 0.000000 176.120229 0.000000 -2.316419 90.052170 1.165576 86.845911 0.057692 -179.057130 165.710484 6.511794 -172.628510 -30.209512 1.225371 -0.940847 93.434043 1.236208 4.866741 21.454555 0.003107 0.000017 155.386544 14.309905 169.448538 -26.028907 0.888046 -7.270793 74.472195 8.661413 11.487582 21.454555 -0.003092 0.000000 6.367458 -0.993835 -0.611733 2.733205 -1.973201 -1.246461 2.414991 -1.980830 -1.234523 5.090584 -0.538993 13.247050 -20.516531 -7.600350 16.713792 -172.846924 -77.711162 -8.742931 7.208950 61.530071 28.692387 -59.256255 -13.621511 2.009725 3.839234 -5.059177 1.042695 -154.225067 81.741688 27.666024 16.571906 -66.742201 -56.790723 -29.397857 7.982662 -0.762416 8.001713 -3.692392 -1.509737 
192.269315 0.000000 5.182185 0.000000 178.821787 0.000000 -2.327634 89.941798 1.130532 86.846414 0.037925 -178.905838 165.464594 5.953215 -171.862544 -31.172933 1.225984 0.385665 94.032139 0.279746 4.549632 21.454555 0.003107 0.000017 157.050661 14.407644 165.558347 -23.023575 1.511069 -6.531906 74.372517 8.448986 12.552919 21.454553 -0.003092 0.000001 6.420367 -1.006058 -0.600525 2.838994 -1.997325 -1.225247 2.520769 -2.004826 -1.213164 5.585859 -0.474636 13.117124 -21.088693 -7.486053 16.615911 -172.357737 -77.625140 -9.241422 6.322671 61.284730 28.034301 -59.093292 -13.663979 2.006627 3.786042 -5.617633 1.743669 -154.912384 81.790904 26.968525 17.684850 -67.033784 -58.305644 -29.408213 7.877737 -0.755716 8.334686 -4.178396 -2.328949 
191.793568 0.000000 4.245121 0.000000 181.504852 0.000000 -2.362231 89.751572 1.153497 86.811371 0.074202 -178.705531 164.899153 5.392197 -171.210535 -32.553596 1.349548 1.757707 94.742912 -0.716532 4.182117 21.454557 0.003108 0.000017 158.319878 14.491699 163.249417 -22.063861 2.074543 -5.346946 75.231848 7.763445 13.537759 21.454551 -0.003091 0.000001 6.466847 -1.002096 -0.582905 2.931616 -1.989335 -1.190709 2.613383 -1.996627 -1.178673 6.040825 -0.389271 12.989959 -21.578622 -7.396356 16.523131 -171.561046 -77.579135 -10.053952 5.267970 61.013852 27.390577 -58.749386 -13.721381 1.997805 3.681680 -6.099326 2.557001 -155.293978 81.812462 26.581067 18.343047 -67.288931 -59.515048 -29.372196 7.803746 -0.750109 8.705775 -4.597852 -3.368791 
191.314845 0.000000 3.350367 0.000000 184.163862 0.000000 -2.417057 89.413636 1.272380 86.736430 0.029140 -178.385229 163.916734 5.050374 -170.585906 -34.555050 1.684733 3.085783 95.601526 -1.702518 3.691339 21.454560 0.003109 0.000018 159.082571 14.833139 163.794427 -23.127195 2.820065 -4.679442 77.690331 7.025310 13.812429 21.454551 -0.003090 0.000001 6.515327 -1.005759 -0.567888 3.028372 -1.996533 -1.161603 2.710136 -2.003648 -1.149524 6.243395 -0.226237 12.849593 -21.844613 -7.421626 16.445665 -170.616909 -77.542334 -11.017152 4.044093 60.738946 26.705466 -58.271873 -13.839231 1.988046 3.600478 -6.372520 3.175024 -154.746369 81.604034 27.139993 18.106261 -67.332236 -60.092502 -29.226078 7.657647 -0.737590 8.829657 -4.891778 -4.276434 
190.835719 0.000000 2.498233 0.000000 186.794405 0.000000 -2.524853 89.011726 1.419566 86.619048 0.203038 -178.156923 162.638033 4.585998 -170.027191 -36.903791 2.156204 4.336051 96.581114 -2.639564 3.158881 21.454562 0.003109 0.000018 159.592984 15.034197 167.263615 -25.012578 3.128366 -5.008287 80.585863 6.728339 13.292241 21.454553 -0.003090 -0.000000 6.560900 -0.957948 -0.510217 3.118052 -1.901991 -1.045756 2.799823 -1.908408 -1.034251 6.339601 -0.032900 12.722672 -22.084635 -7.553612 16.425121 -170.068103 -77.485411 -11.576920 2.871221 60.500878 25.919413 -57.625178 -14.049732 1.978966 3.556714 -6.501366 3.585828 -153.613752 81.260085 28.295916 17.213401 -67.214099 -60.134430 -29.091018 7.503574 -0.725115 8.874484 -5.150716 -5.017675 
190.357376 0.000000 1.688939 0.000000 189.392609 0.000000 -2.700015 88.648725 1.522365 86.440021 0.883239 -178.229189 161.190503 3.642479 -169.557094 -39.318317 2.629662 5.487927 97.568025 -3.492898 2.688422 21.454559 0.003107 0.000018 160.102745 14.647520 172.975789 -26.481928 2.395364 -6.344801 82.656140 7.157534 12.212338 21.454554 -0.003092 -0.000000 6.598446 -0.800813 -0.371381 3.189662 -1.591205 -0.764395 2.871453 -1.595930 -0.754774 6.502376 0.108988 12.651850 -22.492583 -7.742735 16.497176 -170.314400 -77.376245 -11.324980 1.938069 60.335298 24.965215 -56.763631 -14.359998 1.969031 3.553940 -6.589315 3.830849 -152.485281 80.959656 29.448288 16.067747 -67.029325 -59.840311 -29.097693 7.431583 -0.720632 9.049208 -5.443666 -5.582250 
189.879770 0.000000 0.923030 0.000000 191.955284 0.000000 -2.897687 88.352524 1.614831 86.227306 1.874437 -178.507654 159.531499 2.390594 -169.062427 -41.945328 2.955827 6.483426 98.176489 -4.220446 2.314230 21.454557 0.003106 0.000017 160.658630 13.641601 178.446478 -27.390888 1.159181 -7.571834 84.089053 7.666533 11.293097 21.454555 -0.003093 -0.000000 6.634495 -0.564173 -0.194465 3.258284 -1.122682 -0.404499 2.940114 -1.125244 -0.397716 6.652443 0.081014 12.698360 -22.904549 -7.872469 16.640827 -170.821049 -77.155581 -10.806871 1.113383 60.229774 23.778326 -55.685456 -14.690011 1.952638 3.627523 -6.704077 3.865631 -152.131792 80.922223 29.808127 14.975742 -66.847038 -59.324937 -29.230787 7.467880 -0.725285 9.254826 -5.636822 -5.724051 
189.402233 0.000000 0.201730 0.000000 194.480034 0.000000 -3.084440 88.129986 1.747299 86.015549 2.898832 -178.824566 157.589674 1.127581 -168.496024 -44.943031 3.064509 7.281118 98.026439 -4.794318 2.047648 21.454557 0.003107 0.000017 161.296876 12.194311 -178.491932 -27.931048 0.165177 -7.672133 85.349666 7.566361 11.098070 21.454555 -0.003092 0.000000 6.672089 -0.296478 -0.035281 3.331571 -0.591786 -0.078952 3.013452 -0.592390 -0.075379 6.685819 -0.187913 12.892870 -23.129920 -7.880557 16.828141 -171.022519 -76.766097 -10.599760 0.241769 60.145303 22.342129 -54.398239 -14.952565 1.925676 3.819811 -6.922351 3.639734 -153.069600 81.284165 28.847304 14.105047 -66.701490 -58.637019 -29.433921 7.610654 -0.738302 9.370331 -5.567716 -5.305740 
